<svg width="1920" height="1056" viewBox="0 0 1920 1056" fill="none" xmlns="http://www.w3.org/2000/svg">
<path d="M-1.0001 5.99939C-1.0001 5.99939 81.4999 -26.4916 179 64.9994C244.4 126.365 245 169.099 268.261 273.147C296.761 400.635 383.579 590.161 600 498.999C715.884 450.185 706.1 582.651 637 713.999C593.206 797.239 503.141 888.366 480 905.999C321.217 1026.99 86.3329 1014.28 -2.0001 990.999C-89.9941 967.808 -21.9931 10.4994 -1.0001 5.99939Z" fill="#0898E7"/>
<path d="M1926 245.999C1926 245.999 1618.42 162.563 1393 454.999C1288.82 590.157 1266.5 679.009 1271 822.999C1277.75 1038.96 1311.92 1091.71 1488 1033C1582.47 1001.5 1683 963.999 1683 963.999C1739 941.999 1900.01 902.08 1927 907C1953.99 911.919 1981.48 247.499 1926 245.999Z" fill="#FAAE1B"/>
</svg>
