<svg width="141" height="25" viewBox="0 0 141 25" fill="none" xmlns="http://www.w3.org/2000/svg">
<path opacity="0.8" d="M45.5999 16.3798H50.1599V18.9998H42.1799V4.85976H45.5999V16.3798ZM55.9707 7.69976C56.824 7.69976 57.5573 7.89309 58.1707 8.27976C58.784 8.66642 59.2373 9.19309 59.5307 9.85976V7.83976H62.9307V18.9998H59.5307V16.9798C59.2373 17.6464 58.784 18.1731 58.1707 18.5598C57.5573 18.9464 56.824 19.1398 55.9707 19.1398C55.0507 19.1398 54.224 18.9131 53.4907 18.4598C52.7707 17.9931 52.1973 17.3264 51.7707 16.4598C51.3573 15.5931 51.1507 14.5798 51.1507 13.4198C51.1507 12.2464 51.3573 11.2331 51.7707 10.3798C52.1973 9.51309 52.7707 8.85309 53.4907 8.39976C54.224 7.93309 55.0507 7.69976 55.9707 7.69976ZM57.0707 10.6998C56.3373 10.6998 55.744 10.9398 55.2907 11.4198C54.8507 11.8998 54.6307 12.5664 54.6307 13.4198C54.6307 14.2731 54.8507 14.9398 55.2907 15.4198C55.744 15.8998 56.3373 16.1398 57.0707 16.1398C57.7907 16.1398 58.3773 15.8931 58.8307 15.3998C59.2973 14.9064 59.5307 14.2464 59.5307 13.4198C59.5307 12.5798 59.2973 11.9198 58.8307 11.4398C58.3773 10.9464 57.7907 10.6998 57.0707 10.6998ZM72.3653 7.71976C73.6453 7.71976 74.6587 8.14642 75.4053 8.99976C76.1653 9.85309 76.5453 11.0264 76.5453 12.5198V18.9998H73.1253V12.9198C73.1253 12.1731 72.9253 11.5931 72.5253 11.1798C72.1387 10.7531 71.6187 10.5398 70.9653 10.5398C70.272 10.5398 69.7187 10.7598 69.3053 11.1998C68.9053 11.6398 68.7053 12.2664 68.7053 13.0798V18.9998H65.2853V7.83976H68.7053V9.87976C69.0253 9.21309 69.4987 8.68642 70.1253 8.29976C70.7653 7.91309 71.512 7.71976 72.3653 7.71976ZM83.041 7.69976C83.8943 7.69976 84.6276 7.89309 85.241 8.27976C85.8543 8.66642 86.301 9.19309 86.581 9.85976V4.19976H90.001V18.9998H86.581V16.9798C86.301 17.6464 85.8543 18.1731 85.241 18.5598C84.6276 18.9464 83.8943 19.1398 83.041 19.1398C82.121 19.1398 81.2943 18.9131 80.561 18.4598C79.841 17.9931 79.2676 17.3264 78.841 16.4598C78.4276 15.5931 78.221 14.5798 78.221 13.4198C78.221 12.2464 78.4276 11.2331 78.841 10.3798C79.2676 9.51309 79.841 8.85309 80.561 8.39976C81.2943 7.93309 82.121 7.69976 83.041 7.69976ZM84.141 10.6998C83.4076 10.6998 82.8143 10.9398 82.361 11.4198C81.921 11.8998 81.701 12.5664 81.701 13.4198C81.701 14.2731 81.921 14.9398 82.361 15.4198C82.8143 15.8998 83.4076 16.1398 84.141 16.1398C84.861 16.1398 85.4476 15.8931 85.901 15.3998C86.3676 14.9064 86.601 14.2464 86.601 13.4198C86.601 12.5798 86.3676 11.9198 85.901 11.4398C85.4476 10.9464 84.861 10.6998 84.141 10.6998ZM96.5957 7.69976C97.449 7.69976 98.1823 7.89309 98.7957 8.27976C99.409 8.66642 99.8623 9.19309 100.156 9.85976V7.83976H103.556V18.9398C103.556 19.9798 103.356 20.9131 102.956 21.7398C102.556 22.5798 101.942 23.2464 101.116 23.7398C100.289 24.2331 99.2623 24.4798 98.0357 24.4798C96.3557 24.4798 95.009 24.0798 93.9957 23.2798C92.9957 22.4931 92.3957 21.4198 92.1957 20.0598H95.5757C95.6823 20.5131 95.9223 20.8664 96.2957 21.1198C96.6823 21.3731 97.1823 21.4998 97.7957 21.4998C98.5023 21.4998 99.069 21.2931 99.4957 20.8798C99.9357 20.4798 100.156 19.8331 100.156 18.9398V16.9798C99.8623 17.6464 99.409 18.1731 98.7957 18.5598C98.1823 18.9464 97.449 19.1398 96.5957 19.1398C95.6757 19.1398 94.849 18.9131 94.1157 18.4598C93.3957 17.9931 92.8223 17.3264 92.3957 16.4598C91.9823 15.5931 91.7757 14.5798 91.7757 13.4198C91.7757 12.2464 91.9823 11.2331 92.3957 10.3798C92.8223 9.51309 93.3957 8.85309 94.1157 8.39976C94.849 7.93309 95.6757 7.69976 96.5957 7.69976ZM97.6957 10.6998C96.9623 10.6998 96.369 10.9398 95.9157 11.4198C95.4757 11.8998 95.2557 12.5664 95.2557 13.4198C95.2557 14.2731 95.4757 14.9398 95.9157 15.4198C96.369 15.8998 96.9623 16.1398 97.6957 16.1398C98.4157 16.1398 99.0023 15.8931 99.4557 15.3998C99.9223 14.9064 100.156 14.2464 100.156 13.4198C100.156 12.5798 99.9223 11.9198 99.4557 11.4398C99.0023 10.9464 98.4157 10.6998 97.6957 10.6998ZM117.01 7.83976V18.9998H113.57V16.9798C113.25 17.6331 112.77 18.1531 112.13 18.5398C111.504 18.9264 110.77 19.1198 109.93 19.1198C108.65 19.1198 107.63 18.6931 106.87 17.8398C106.124 16.9864 105.75 15.8131 105.75 14.3198V7.83976H109.15V13.8998C109.15 14.6598 109.344 15.2531 109.73 15.6798C110.13 16.0931 110.664 16.2998 111.33 16.2998C112.024 16.2998 112.57 16.0798 112.97 15.6398C113.37 15.1998 113.57 14.5731 113.57 13.7598V7.83976H117.01ZM122.787 9.93976C123.214 9.25976 123.761 8.71976 124.427 8.31976C125.107 7.91976 125.841 7.71976 126.627 7.71976V11.3798H125.647C124.741 11.3798 124.034 11.5731 123.527 11.9598C123.034 12.3464 122.787 12.9998 122.787 13.9198V18.9998H119.367V7.83976H122.787V9.93976ZM139.159 7.83976V18.9998H135.719V16.9798C135.399 17.6331 134.919 18.1531 134.279 18.5398C133.652 18.9264 132.919 19.1198 132.079 19.1198C130.799 19.1198 129.779 18.6931 129.019 17.8398C128.272 16.9864 127.899 15.8131 127.899 14.3198V7.83976H131.299V13.8998C131.299 14.6598 131.492 15.2531 131.879 15.6798C132.279 16.0931 132.812 16.2998 133.479 16.2998C134.172 16.2998 134.719 16.0798 135.119 15.6398C135.519 15.1998 135.719 14.5731 135.719 13.7598V7.83976H139.159Z" fill="#02073E"/>
<path fill-rule="evenodd" clip-rule="evenodd" d="M28.4326 6.28886C28.4372 6.37059 28.4312 6.4536 28.4108 6.53704L26.5851 13.8693C26.493 14.2383 26.1632 14.4985 25.7842 14.5007L14.8303 14.5561C14.8289 14.5561 14.8275 14.5561 14.826 14.5561H3.87208C3.49095 14.5561 3.15892 14.2951 3.06692 13.924L1.24124 6.56369C1.22015 6.47853 1.21414 6.39295 1.21945 6.30909C0.513168 6.08589 -0.000488281 5.42228 -0.000488281 4.6404C-0.000488281 3.67491 0.781211 2.89001 1.74216 2.89001C2.70311 2.89001 3.48481 3.67491 3.48481 4.6404C3.48481 5.18358 3.23683 5.66958 2.84857 5.99126L5.13428 8.30334C5.71203 8.88779 6.5136 9.22325 7.33366 9.22325C8.30341 9.22325 9.22795 8.7605 9.81018 7.98593L13.5667 2.98806C13.2511 2.67153 13.0557 2.23414 13.0557 1.75162C13.0557 0.786524 13.8374 0.0012207 14.7983 0.0012207C15.7593 0.0012207 16.541 0.786524 16.541 1.75162C16.541 2.21954 16.356 2.64401 16.0569 2.95839C16.0579 2.95969 16.0592 2.96099 16.0601 2.96226L19.7893 7.9739C20.3713 8.75578 21.2991 9.22325 22.2716 9.22325C23.0993 9.22325 23.8776 8.89942 24.4628 8.31194L26.7629 6.00201C26.3665 5.68075 26.1118 5.19048 26.1118 4.6404C26.1118 3.67491 26.8936 2.89001 27.8545 2.89001C28.8154 2.89001 29.5972 3.67491 29.5972 4.6404C29.5972 5.4012 29.1097 6.04889 28.4326 6.28886ZM26.4069 17.1667C26.4069 16.707 26.0354 16.3336 25.5771 16.3336H4.11183C3.65353 16.3336 3.28195 16.707 3.28195 17.1667V19.1665C3.28195 19.6271 3.65353 20 4.11183 20H25.5771C26.0354 20 26.4069 19.6271 26.4069 19.1665V17.1667Z" fill="#02073E"/>
</svg>
